# xmcd
#
# Track frame offsets:
# 150
# 10682
# 20550
# 35950
# 47757
# 58710
# 76655
# 92240
# 106045
# 119092
# 129515
# 143585
#
# Disc length: 2090 seconds
#
#
# Revision: 0
# Processed by: cddbd v1.5.1PL0 Copyright (c) Steve Scherf et al.
# Submitted via: FreeRIP 2.941 
#
DISCID=9a08280c
DTITLE=Musica De Los Años Dorados  - Volumen 19
DYEAR=2000
DGENRE=Other
TTITLE0=Leo Dan - Libre, soltero y sin nadie
TTITLE1=Sandro - Dame el fuego de tu amor
TTITLE2=Rafaela Carra - Fiesta
TTITLE3=Industria nasional - Vamos ,dale
TTITLE4=Los naufragos - Yo en mi casa y ella en el mar
TTITLE5=Katunga - Popurri
TTITLE6=Leonardo Fafio - Quiero aprender de memoria
TTITLE7=Pedro y Pablo - yo vivo en esta siudad
TTITLE8=Beto Orlando - Angelica
TTITLE9=Eydie Gorme con Los Panchos - Piel canela
TTITLE10=Los prados - Como no  voy a quererte
TTITLE11=Estela Raval y Trio los panchos - Siete notas de amor
EXTD=
EXTT0=
EXTT1=
EXTT2=
EXTT3=
EXTT4=
EXTT5=
EXTT6=
EXTT7=
EXTT8=
EXTT9=
EXTT10=
EXTT11=
PLAYORDER=
